# xmcd
#
# Track frame offsets: 
#        150
#        12629
#        22143
#        33588
#        45821
#        57510
#        70444
#        82451
#        94776
#        103889
#        115736
#        123703
#        135117
#        145426
#        157161
#        167349
#        178987
#        188843
#        201050
#        214245
#        226552
#        238759
#        250259
#        261421
#        272614
#        284847
#        296230
#        310327
#
# Disc length: 4309 seconds
#
# Revision: 0
# Processed by: cddbd v1.5.2PL0 Copyright (c) Steve Scherf et al.
# Submitted via: ExactAudioCopyFreeDBPlugin 1.0
#
DISCID=b910d31c
DTITLE=Various Artist - The Catacombs
DYEAR=1900
DGENRE=Northern Soul
TTITLE0=Saxie Russell - Psychedelic Soul (Part 1)
TTITLE1=Johnny and Lilly - Suffering City
TTITLE2=Bobby Womack - What Is This?
TTITLE3=The Fi-Dels - Try A Little Harder
TTITLE4=The Whispers - Remember Me
TTITLE5=Five Stairsteps - Change Of Pace
TTITLE6=The Ad Libs - Nothing Worse Than Being Alone
TTITLE7=Jerry Williams - If You Ask Me (Because I Love You)
TTITLE8=Joe Simon - The Girls Alright With Me
TTITLE9=Sandy Wynns - The Touch Of Venus
TTITLE10=Mill Evans - I've Got To Have Your Love
TTITLE11=Kelly Brothers - Love Time
TTITLE12=John Williams and the Tick Tocks - Do Me Like You Do Me
TTITLE13="Big" Al Downing - Medley Of Soul
TTITLE14=Bobby Jones and the Para-Monts - Beware A Stranger
TTITLE15=Leon Haywood - Baby Reconsider
TTITLE16=Bob Wilson - Suzy's Serenade
TTITLE17=The Showmen - The Wrong Girl
TTITLE18=Gene Chandler - Nothing Can Stop Me
TTITLE19=The Du-Ettes - Every Beat Of My Heart
TTITLE20=Fred Hughes - You Can't Take It Away
TTITLE21=The Neptunes - House Of Heartaches
TTITLE22=Victor Knight - Chinatown
TTITLE23=Dee Clark - That's My Girl
TTITLE24=The COD's - Michael
TTITLE25=The Peaches - Music To My Ears
TTITLE26=PP Arnold - Everything's Gonna Be Alright
TTITLE27=Kenny Young - Ain't It Funny What Love Can Do
EXTD=
EXTT0=
EXTT1=
EXTT2=
EXTT3=
EXTT4=
EXTT5=
EXTT6=
EXTT7=
EXTT8=
EXTT9=
EXTT10=
EXTT11=
EXTT12=
EXTT13=
EXTT14=
EXTT15=
EXTT16=
EXTT17=
EXTT18=
EXTT19=
EXTT20=
EXTT21=
EXTT22=
EXTT23=
EXTT24=
EXTT25=
EXTT26=
EXTT27=
PLAYORDER=
